<svg layerName="sygnet" viewBox="334 281 596 308" width="596" height="308" xmlns="http://www.w3.org/2000/svg" style="overflow-x: visible; overflow-y: visible">
  <path transform="translate(218.69 424.43)" layerName="Vector" d="M121.473-61.906C121.473-61.906 153.453-61.906 153.453-61.906 153.453-61.906 228.671 121.398 228.671 121.398 228.671 121.398 231.264 121.398 231.264 121.398 231.264 121.398 306.485-61.906 306.485-61.906 306.485-61.906 338.464-61.906 338.464-61.906 338.464-61.906 338.464 158.921 338.464 158.921 338.464 158.921 313.394 158.921 313.394 158.921 313.394 158.921 313.394-8.854 313.394-8.854 313.394-8.854 311.241-8.854 311.241-8.854 311.241-8.854 242.074 158.921 242.074 158.921 242.074 158.921 217.872 158.921 217.872 158.921 217.872 158.921 148.706-8.854 148.706-8.854 148.706-8.854 146.543-8.854 146.543-8.854 146.543-8.854 146.543 158.921 146.543 158.921 146.543 158.921 121.473 158.921 121.473 158.921 121.473 158.921 121.473-61.906 121.473-61.906Z" fill-rule="nonzero" fill="#FFC820" />
  <path transform="translate(539.5 424.43)" layerName="Vector" d="M74.836 158.921C74.836 158.921 74.836-61.906 74.836-61.906 74.836-61.906 101.631-61.906 101.631-61.906 101.631-61.906 101.631 135.2 101.631 135.2 101.631 135.2 204.512 135.2 204.512 135.2 204.512 135.2 204.512 158.921 204.512 158.921 204.512 158.921 74.836 158.921 74.836 158.921Z" fill-rule="nonzero" fill="#FFC820" />
  <path transform="translate(653.68 336.15)" layerName="Vector" d="M187.466 49.823C187.466 49.823 58.236 49.823 58.236 49.823 58.236 49.823 58.236 26.307 58.236 26.307 58.236 26.307 177.703 26.307 177.703 26.307 177.703 26.307 253.208-49.029 253.208-49.029 253.208-49.029 269.873-32.401 269.873-32.401 269.873-32.401 187.466 49.823 187.466 49.823Z" fill-rule="nonzero" fill="#FFC820" />
</svg>