<svg width="90" height="90" viewBox="0 0 90 90" xmlns="http://www.w3.org/2000/svg">
  <mask id="_lvhvml0" style="mask-type:luminance" maskUnits="userSpaceOnUse" x="32" y="9" width="57" height="57"><path d="M32.989 9.999H88.173V65.186H32.989V9.999Z" fill="#fff"></path></mask>
  <path d="M72.131 31.917C71.945 31.531 71.744 31.166 71.534 30.82L71.528 30.81C71.308 30.452 71.071 30.104 70.816 29.766L70.816 29.768C70.564 29.433 70.293 29.107 70.005 28.795L70.004 28.795C69.718 28.485 69.418 28.19 69.099 27.907L69.098 27.908C68.783 27.627 68.455 27.361 68.117 27.116C67.778 26.869 67.423 26.636 67.054 26.42L67.054 26.421C66.697 26.211 66.327 26.016 65.943 25.841L65.943 25.84C65.555 25.659 65.162 25.502 64.767 25.364L64.465 25.262C64.162 25.165 63.855 25.08 63.544 25.006C63.145 24.91 62.733 24.831 62.311 24.773L62.31 24.772C62.097 24.742 61.885 24.718 61.675 24.699L61.05 24.658L61.037 24.658L60.41 24.649C60.2 24.651 59.987 24.658 59.772 24.671L59.773 24.672C59.562 24.684 59.354 24.701 59.148 24.723L58.526 24.804L58.512 24.806C58.107 24.872 57.694 24.956 57.283 25.063L57.274 25.065C56.869 25.172 56.472 25.297 56.081 25.439L56.072 25.442L56.065 25.445C55.677 25.589 55.29 25.753 54.911 25.936L54.906 25.939C54.531 26.121 54.166 26.321 53.806 26.542L53.804 26.541C53.439 26.763 53.089 27.003 52.752 27.258L52.745 27.262C52.416 27.513 52.092 27.782 51.78 28.071C51.472 28.355 51.177 28.655 50.898 28.968L50.891 28.976C50.611 29.291 50.351 29.616 50.106 29.949L50.096 29.963C49.853 30.3 49.622 30.651 49.408 31.014C49.19 31.385 48.997 31.76 48.822 32.137C48.644 32.521 48.486 32.911 48.347 33.31L48.343 33.321C48.209 33.715 48.093 34.114 47.994 34.517L47.99 34.53C47.895 34.93 47.816 35.343 47.758 35.765L47.757 35.765C47.697 36.192 47.66 36.612 47.643 37.023L47.643 37.037C47.628 37.45 47.63 37.874 47.656 38.303L47.657 38.303C47.681 38.73 47.726 39.144 47.789 39.547L47.791 39.56C47.857 39.971 47.942 40.385 48.052 40.802L48.054 40.802C48.159 41.208 48.283 41.606 48.424 41.993L48.428 42.004C48.575 42.401 48.739 42.785 48.919 43.16L48.926 43.175C49.104 43.538 49.303 43.906 49.528 44.269L49.527 44.27C49.748 44.635 49.987 44.985 50.242 45.322C50.497 45.66 50.767 45.98 51.05 46.286L51.05 46.287C51.342 46.606 51.645 46.901 51.953 47.176L51.96 47.182C52.271 47.457 52.599 47.725 52.95 47.978L52.951 47.978C53.296 48.23 53.647 48.458 53.999 48.666C54.36 48.878 54.734 49.074 55.122 49.251L55.121 49.251C55.508 49.431 55.9 49.587 56.291 49.724L56.295 49.726C56.693 49.865 57.097 49.983 57.506 50.081C57.924 50.183 58.337 50.26 58.752 50.318L58.763 50.321C59.172 50.376 59.593 50.415 60.021 50.43L60.022 50.429C60.448 50.447 60.866 50.443 61.274 50.42L61.287 50.42C61.701 50.395 62.12 50.351 62.545 50.282C62.956 50.217 63.365 50.132 63.774 50.027L63.778 50.026C64.188 49.92 64.591 49.793 64.989 49.645C65.386 49.499 65.77 49.334 66.145 49.154L66.149 49.152C66.532 48.967 66.902 48.765 67.257 48.549L67.272 48.54C67.624 48.322 67.969 48.086 68.307 47.832C68.647 47.574 68.968 47.304 69.274 47.023L69.281 47.018C69.589 46.733 69.886 46.431 70.167 46.112C70.448 45.797 70.713 45.469 70.958 45.131L70.958 45.13C71.208 44.787 71.439 44.435 71.654 44.069C71.867 43.707 72.061 43.334 72.238 42.952L72.241 42.947C72.416 42.565 72.573 42.174 72.71 41.779C72.85 41.378 72.97 40.971 73.068 40.559C73.17 40.144 73.245 39.731 73.303 39.326L73.305 39.313C73.36 38.908 73.398 38.491 73.414 38.065L73.415 38.065C73.433 37.634 73.428 37.213 73.406 36.8L73.352 36.163C73.33 35.953 73.302 35.742 73.268 35.529L73.267 35.529C73.201 35.106 73.114 34.695 73.011 34.298L73.01 34.298C72.904 33.886 72.777 33.481 72.63 33.084L72.629 33.084C72.487 32.696 72.323 32.31 72.139 31.932L72.139 31.931C72.138 31.929 72.136 31.927 72.135 31.924C72.133 31.921 72.133 31.918 72.132 31.916L72.131 31.917ZM68.328 33.779C68.45 34.027 68.56 34.284 68.656 34.547L68.658 34.554C68.756 34.819 68.84 35.087 68.91 35.359L68.912 35.362C68.984 35.642 69.041 35.916 69.083 36.187L69.085 36.2C69.129 36.473 69.159 36.755 69.177 37.046C69.192 37.334 69.195 37.612 69.184 37.884L69.183 37.897C69.173 38.172 69.147 38.455 69.108 38.743C69.067 39.028 69.016 39.301 68.951 39.563L68.949 39.575C68.883 39.848 68.804 40.118 68.711 40.385C68.616 40.658 68.51 40.923 68.392 41.179C68.273 41.435 68.143 41.684 68.001 41.925L67.997 41.931C67.854 42.176 67.701 42.409 67.534 42.638L67.533 42.64C67.367 42.869 67.189 43.09 67.003 43.298L66.996 43.306C66.814 43.511 66.619 43.712 66.412 43.903C66.197 44.101 65.978 44.283 65.753 44.452C65.531 44.621 65.299 44.779 65.058 44.929L64.684 45.145C64.56 45.212 64.437 45.277 64.313 45.337C64.05 45.463 63.786 45.574 63.519 45.673C63.255 45.771 62.987 45.856 62.717 45.926L62.3 46.023C62.159 46.052 62.018 46.078 61.874 46.101C61.605 46.144 61.329 46.174 61.041 46.192C60.896 46.2 60.752 46.204 60.61 46.206L60.19 46.199L60.177 46.198C59.904 46.188 59.622 46.162 59.333 46.123L59.333 46.124C59.193 46.104 59.055 46.081 58.919 46.055L58.508 45.966L58.499 45.964C58.226 45.898 57.956 45.819 57.688 45.726L57.689 45.727C57.417 45.631 57.155 45.526 56.901 45.408L56.89 45.403C56.639 45.288 56.392 45.159 56.148 45.016C56.023 44.942 55.902 44.867 55.785 44.79L55.443 44.554L55.43 44.543C55.21 44.385 54.993 44.21 54.776 44.019L54.776 44.018C54.667 43.921 54.562 43.823 54.461 43.724L54.171 43.425L54.165 43.417C53.972 43.209 53.79 42.993 53.621 42.769C53.449 42.541 53.291 42.31 53.146 42.072L53.143 42.064L53.138 42.056C52.997 41.828 52.863 41.582 52.734 41.319C52.612 41.063 52.502 40.806 52.405 40.546C52.306 40.273 52.22 40 52.15 39.729L52.147 39.721C52.076 39.453 52.019 39.176 51.973 38.889C51.929 38.603 51.899 38.327 51.884 38.056L51.883 38.043C51.867 37.773 51.865 37.494 51.875 37.206C51.887 36.915 51.912 36.632 51.951 36.356L51.952 36.346C51.989 36.077 52.041 35.803 52.108 35.524C52.176 35.243 52.258 34.966 52.351 34.692C52.444 34.427 52.548 34.17 52.666 33.916C52.788 33.65 52.918 33.4 53.058 33.163C53.202 32.919 53.359 32.679 53.53 32.443C53.698 32.215 53.872 31.998 54.056 31.791C54.246 31.578 54.446 31.374 54.656 31.18C54.861 30.991 55.08 30.807 55.311 30.632C55.536 30.462 55.767 30.305 56.003 30.162L56.012 30.156C56.25 30.009 56.495 29.875 56.754 29.75L57.142 29.573C57.274 29.517 57.408 29.464 57.544 29.414L57.544 29.415C57.812 29.318 58.082 29.233 58.356 29.16L58.356 29.161C58.624 29.092 58.902 29.034 59.187 28.988C59.471 28.944 59.748 28.914 60.018 28.899L60.029 28.899C60.306 28.882 60.588 28.88 60.882 28.891L60.883 28.89C61.171 28.903 61.448 28.927 61.715 28.965L61.728 28.967C62 29.004 62.278 29.057 62.559 29.124L62.562 29.125C62.836 29.19 63.104 29.269 63.366 29.361L63.37 29.362C63.643 29.457 63.904 29.563 64.153 29.679L64.16 29.682L64.168 29.685C64.419 29.8 64.666 29.93 64.91 30.073L64.916 30.076C65.159 30.218 65.395 30.374 65.625 30.541C65.854 30.707 66.075 30.884 66.283 31.071L66.289 31.077C66.394 31.17 66.497 31.265 66.598 31.364L66.896 31.671C67.086 31.876 67.267 32.093 67.436 32.318L67.438 32.321C67.609 32.547 67.768 32.78 67.918 33.024C68.07 33.274 68.204 33.519 68.321 33.764L68.328 33.779Z" fill="#000000"></path>
  <path d="M51.459 36.484L21.392 53.528L23.775 58.441L55.881 45.577L57.456 49.509L21.689 63.842L15.848 51.803L49.37 32.801L51.459 36.484Z" fill="#000000"></path>
  <path d="M45.287 46.869L43.886 44.019L39.401 46.199L40.802 49.05L45.287 46.869Z" fill="#000000"></path>
</svg>