<svg width="90" height="90" viewBox="0 0 90 90" xmlns="http://www.w3.org/2000/svg">
  <mask id="_lvhs8l0" style="mask-type:luminance" maskUnits="userSpaceOnUse" x="-7" y="13" width="50" height="50"><path d="M-6.508 13.914H42.271V62.693H-6.508V13.914Z" fill="#fff"></path></mask>
  <defs><clipPath id="_lvhs8l1"><rect width="90" height="90" fill="#fff"></rect></clipPath></defs>
  <path d="M17.869 44.75C17.66 44.75 17.448 44.739 17.234 44.718H17.232C17.026 44.698 16.82 44.668 16.616 44.626L16.605 44.624C16.402 44.584 16.196 44.533 15.994 44.472C15.785 44.407 15.589 44.337 15.402 44.259C15.213 44.181 15.024 44.091 14.831 43.99L14.554 43.833C14.464 43.779 14.374 43.722 14.284 43.662C14.11 43.546 13.938 43.419 13.773 43.282L13.771 43.282C13.613 43.153 13.458 43.012 13.306 42.86C13.154 42.708 13.013 42.553 12.882 42.392L12.685 42.14C12.624 42.057 12.564 41.972 12.507 41.887L12.332 41.612L12.175 41.334C12.078 41.153 11.99 40.964 11.906 40.763C11.825 40.568 11.753 40.369 11.693 40.171C11.631 39.964 11.58 39.761 11.541 39.561L11.54 39.552L11.538 39.543C11.497 39.344 11.466 39.14 11.446 38.933C11.425 38.715 11.415 38.503 11.415 38.296C11.415 38.089 11.425 37.877 11.446 37.66C11.466 37.452 11.497 37.248 11.538 37.048L11.54 37.04L11.541 37.032C11.581 36.83 11.632 36.625 11.694 36.416C11.753 36.222 11.824 36.027 11.906 35.829C11.99 35.629 12.077 35.439 12.174 35.257C12.273 35.072 12.385 34.888 12.507 34.704C12.622 34.532 12.747 34.363 12.88 34.2C13.012 34.04 13.154 33.885 13.306 33.733C13.458 33.581 13.613 33.44 13.771 33.311L13.773 33.31C13.936 33.176 14.104 33.048 14.276 32.933L14.277 32.934C14.461 32.812 14.646 32.702 14.831 32.602C15.013 32.505 15.202 32.417 15.402 32.333C15.589 32.256 15.784 32.184 15.993 32.119L15.994 32.12C16.196 32.059 16.402 32.008 16.605 31.968L16.616 31.966C16.82 31.925 17.026 31.893 17.232 31.873H17.234C17.448 31.853 17.66 31.842 17.869 31.842C18.076 31.842 18.288 31.852 18.506 31.873C18.609 31.883 18.712 31.896 18.814 31.911L19.116 31.965L19.125 31.967L19.134 31.968C19.33 32.006 19.528 32.056 19.73 32.117L20.045 32.221C20.146 32.257 20.243 32.294 20.336 32.333C20.537 32.417 20.726 32.505 20.907 32.602L21.183 32.758C21.273 32.813 21.363 32.87 21.451 32.929L21.458 32.934C21.544 32.991 21.629 33.051 21.712 33.113L21.956 33.304L21.965 33.31L21.973 33.317C22.128 33.442 22.28 33.581 22.433 33.733C22.506 33.806 22.577 33.882 22.648 33.959L22.861 34.208C22.993 34.368 23.119 34.537 23.235 34.711C23.355 34.892 23.464 35.074 23.563 35.257C23.663 35.45 23.753 35.64 23.832 35.829C23.909 36.014 23.979 36.208 24.043 36.415C24.074 36.52 24.103 36.624 24.129 36.727L24.196 37.032L24.198 37.04L24.2 37.048C24.238 37.235 24.268 37.437 24.291 37.658C24.312 37.876 24.323 38.089 24.323 38.296C24.323 38.4 24.321 38.505 24.315 38.611L24.291 38.933C24.268 39.154 24.238 39.356 24.2 39.543L24.196 39.561C24.157 39.763 24.106 39.966 24.043 40.175C23.977 40.385 23.908 40.581 23.832 40.763C23.753 40.952 23.663 41.142 23.563 41.334C23.464 41.517 23.355 41.699 23.235 41.88C23.118 42.055 22.993 42.224 22.861 42.383L22.855 42.391C22.719 42.558 22.579 42.713 22.433 42.86C22.28 43.012 22.128 43.15 21.973 43.276L21.965 43.282L21.956 43.288C21.797 43.42 21.63 43.544 21.458 43.658L21.451 43.662C21.274 43.781 21.093 43.891 20.907 43.99C20.715 44.091 20.525 44.181 20.336 44.259C20.154 44.335 19.958 44.404 19.748 44.469C19.539 44.532 19.335 44.584 19.134 44.623L19.116 44.627C18.917 44.668 18.713 44.698 18.506 44.718C18.288 44.739 18.076 44.75 17.869 44.75ZM17.869 48.75C18.214 48.75 18.554 48.732 18.889 48.7C19.234 48.666 19.578 48.616 19.918 48.546L19.917 48.545C20.253 48.479 20.58 48.397 20.898 48.302L20.915 48.296C21.226 48.2 21.548 48.087 21.872 47.953C22.189 47.821 22.492 47.676 22.784 47.523L22.793 47.518L22.802 47.514C23.101 47.353 23.39 47.177 23.669 46.99L23.67 46.992C23.96 46.799 24.24 46.592 24.506 46.371L24.505 46.37C24.773 46.152 25.025 45.923 25.261 45.688C25.504 45.444 25.73 45.192 25.943 44.932C26.163 44.666 26.37 44.389 26.56 44.106L26.564 44.1C26.749 43.821 26.925 43.53 27.087 43.229L27.091 43.22L27.096 43.211C27.249 42.919 27.394 42.616 27.525 42.299C27.66 41.975 27.773 41.653 27.869 41.342L27.875 41.325C27.97 41.007 28.052 40.68 28.118 40.344L28.119 40.345C28.191 39.996 28.238 39.655 28.271 39.33L28.273 39.324V39.316C28.305 38.981 28.323 38.641 28.323 38.296C28.323 37.951 28.305 37.61 28.273 37.276V37.269L28.271 37.262C28.238 36.938 28.191 36.596 28.119 36.247C28.053 35.911 27.97 35.585 27.875 35.268L27.87 35.254C27.772 34.935 27.659 34.614 27.525 34.292C27.394 33.976 27.249 33.673 27.096 33.381L27.091 33.371L27.087 33.363C26.925 33.061 26.749 32.771 26.564 32.492L26.56 32.486C26.37 32.202 26.164 31.925 25.944 31.66C25.731 31.399 25.504 31.148 25.261 30.905C25.025 30.669 24.773 30.439 24.505 30.221C24.239 30.001 23.96 29.793 23.67 29.601L23.669 29.602C23.39 29.415 23.101 29.239 22.802 29.078L22.796 29.076C22.489 28.912 22.18 28.768 21.872 28.64C21.548 28.505 21.226 28.393 20.915 28.296L20.898 28.29C20.58 28.195 20.253 28.113 19.917 28.047L19.918 28.046C19.578 27.977 19.234 27.925 18.889 27.892C18.554 27.86 18.214 27.842 17.869 27.842C17.522 27.842 17.181 27.86 16.848 27.892C16.503 27.925 16.161 27.976 15.821 28.045C15.489 28.111 15.158 28.194 14.836 28.291L14.827 28.294C14.508 28.392 14.187 28.506 13.865 28.64C13.557 28.768 13.249 28.912 12.942 29.076L12.935 29.078C12.634 29.241 12.344 29.416 12.065 29.601L12.059 29.606C11.917 29.701 11.777 29.799 11.641 29.901L11.237 30.215C10.97 30.433 10.717 30.665 10.477 30.905C10.237 31.145 10.006 31.399 9.786 31.667L9.784 31.668C9.571 31.928 9.368 32.203 9.179 32.486L9.174 32.492C8.989 32.771 8.813 33.061 8.651 33.363L8.648 33.369C8.485 33.677 8.341 33.984 8.213 34.292C8.083 34.605 7.964 34.931 7.863 35.268C7.768 35.585 7.686 35.911 7.62 36.247C7.551 36.587 7.498 36.931 7.465 37.276C7.433 37.61 7.415 37.951 7.415 38.296C7.415 38.641 7.433 38.981 7.465 39.316C7.498 39.661 7.55 40.005 7.619 40.345L7.62 40.344C7.653 40.51 7.688 40.673 7.729 40.833L7.863 41.325L7.864 41.328C7.964 41.658 8.081 41.983 8.213 42.299C8.277 42.453 8.345 42.608 8.417 42.762L8.648 43.223L8.651 43.229C8.732 43.38 8.817 43.528 8.904 43.673L9.174 44.099L9.179 44.106C9.274 44.247 9.371 44.387 9.473 44.524L9.784 44.924L9.786 44.925C10.006 45.194 10.237 45.447 10.477 45.688C10.717 45.928 10.97 46.158 11.237 46.376C11.369 46.484 11.504 46.59 11.641 46.692L12.059 46.987L12.065 46.992C12.205 47.084 12.347 47.174 12.492 47.261L12.935 47.514L12.945 47.518L12.954 47.523C13.246 47.676 13.549 47.821 13.865 47.953C14.026 48.019 14.187 48.081 14.348 48.138L14.827 48.297L14.836 48.3C15.162 48.399 15.496 48.483 15.832 48.549V48.547C16.168 48.615 16.506 48.667 16.848 48.7C17.181 48.732 17.522 48.75 17.869 48.75Z" fill="#000000"></path>
  <path d="M31.333 25.788V61.383H82.449V25.788H31.333ZM78.25 57.183H35.533V29.987H78.25V57.183Z" fill="#000000"></path>
  <path d="M52.336 42.383L40.617 54.1H22.317V49.894H38.874L49.359 39.407L52.336 42.383Z" fill="#000000"></path>
</svg>