<svg width="90" height="90" viewBox="0 0 90 90" xmlns="http://www.w3.org/2000/svg">
  <mask id="_lvhnbd0" style="mask-type:luminance" maskUnits="userSpaceOnUse" x="15" y="25" width="57" height="28"><path d="M15.509 25.447H71.824V52.967H15.509V25.447Z" fill="#fff"></path></mask>
  <mask id="_lvhnbd1" style="mask-type:luminance" maskUnits="userSpaceOnUse" x="15" y="25" width="57" height="28"><path d="M71.773 29.247V25.556H48.709L31.704 42.558H15.776V46.292H27.97L25.03 49.233H15.609V52.967H26.576L33.251 46.292H44.842L52.998 38.136H59.188L66.051 52.822H71.476V49.131H68.4L61.538 34.444H51.502L51.457 34.399L51.409 34.444H51.314V34.542L43.295 42.558H36.984L50.295 29.247H71.773Z" fill="#fff"></path></mask>
  <mask id="_lvhnbd2" style="mask-type:luminance" maskUnits="userSpaceOnUse" x="15" y="25" width="58" height="29"><path d="M72.059 25.29H15.509V53.261H72.059V25.29Z" fill="#fff"></path></mask>
  <mask id="_lvhnbd3" style="mask-type:luminance" maskUnits="userSpaceOnUse" x="15" y="25" width="57" height="28"><path d="M15.575 25.549H71.824V52.967H15.575V25.549Z" fill="#fff"></path></mask>
  <mask id="_lvhnbd4" style="mask-type:luminance" maskUnits="userSpaceOnUse" x="15" y="25" width="57" height="28"><path d="M71.773 29.247V25.556H48.709L31.704 42.558H15.776V46.292H27.97L25.03 49.233H15.609V52.967H26.576L33.251 46.292H44.842L52.998 38.136H59.188L66.051 52.822H71.476V49.131H68.4L61.538 34.444H51.502L51.457 34.399L51.409 34.444H51.314V34.542L43.295 42.558H36.984L50.295 29.247H71.773Z" fill="#fff"></path></mask>
  <defs><clipPath id="_lvhnbd5"><rect width="90" height="90" fill="#fff"></rect></clipPath></defs>
  <path d="M-179.228-25.759C-179.228-25.759-179.228-29.45-179.228-29.45-179.228-29.45-202.292-29.45-202.292-29.45-202.292-29.45-219.296-12.448-219.296-12.448-219.296-12.448-235.225-12.448-235.225-12.448-235.225-12.448-235.225-8.714-235.225-8.714-235.225-8.714-223.03-8.714-223.03-8.714-223.03-8.714-225.971-5.773-225.971-5.773-225.971-5.773-235.391-5.773-235.391-5.773-235.391-5.773-235.391-2.039-235.391-2.039-235.391-2.039-224.424-2.039-224.424-2.039-224.424-2.039-217.75-8.714-217.75-8.714-217.75-8.714-206.159-8.714-206.159-8.714-206.159-8.714-198.002-16.871-198.002-16.871-198.002-16.871-191.812-16.871-191.812-16.871-191.812-16.871-184.95-2.184-184.95-2.184-184.95-2.184-179.525-2.184-179.525-2.184-179.525-2.184-179.525-5.875-179.525-5.875-179.525-5.875-182.601-5.875-182.601-5.875-182.601-5.875-189.463-20.562-189.463-20.562-189.463-20.562-199.498-20.562-199.498-20.562-199.498-20.562-199.543-20.607-199.543-20.607-199.543-20.607-199.591-20.562-199.591-20.562-199.591-20.562-199.686-20.562-199.686-20.562-199.686-20.562-199.686-20.464-199.686-20.464-199.686-20.464-207.705-12.448-207.705-12.448-207.705-12.448-214.016-12.448-214.016-12.448-214.016-12.448-200.705-25.759-200.705-25.759-200.705-25.759-179.228-25.759-179.228-25.759Z" fill-rule="nonzero" transform="translate(251 55)" fill="#000000"></path>
  <path d="M15.431 18.646V59.133H73.955V18.646H15.431ZM69.955 55.133H19.431V22.646H69.955V55.133Z" fill="#000000"></path>
  <path d="M81.461 55.624V66.216H7.989V55.624H81.461ZM11.989 62.216H77.461V59.624H11.989V62.216Z" fill="#000000"></path>
</svg>