<svg width="90" height="90" viewBox="0 0 90 90" xmlns="http://www.w3.org/2000/svg" style="overflow: visible">
  <mask id="_lvhn9e0" style="mask-type:luminance" maskUnits="userSpaceOnUse" x="18" y="8" width="85" height="72"><path d="M18.851 8.33H102.376V79.424H18.851V8.33Z" fill="#fff"></path></mask>
  <defs><clipPath id="_lvhn9e1"><rect width="90" height="90" fill="#fff"></rect></clipPath></defs>
  <g clip-path="url(#_lvhn9e1)">
    <path d="M28.802 37.644V41.644H3.097V37.644H28.802Z" fill="#FFC820"></path>
    <path d="M28.802 47.572V51.572H3.097V47.572H28.802Z" fill="#FFC820"></path>
    <g mask="url(#_lvhn9e0)">
      <path d="M32.366 31.237L38.928 65.907L88.817 56.501L82.258 21.83L32.366 31.237ZM84.143 53.311L42.115 61.235L37.041 34.426L79.071 26.502L84.143 53.311Z" fill="#FFC820"></path>
    </g>
    <path d="M81.863 24.975L62.09 53.92L33.567 34.485L35.819 31.18L61.04 48.365L78.561 22.719L81.863 24.975Z" fill="#FFC820"></path>
  </g>
</svg>