<svg xmlns="http://www.w3.org/2000/svg" viewBox="0 0 24 24" fill="none" style="color:#111"><path d="M 1.5 0 C 0.672 0 0 0.672 0 1.5 L 0 16.5 C 0 17.328 0.672 18 1.5 18 L 16.5 18 C 17.328 18 18 17.328 18 16.5 L 18 1.5 C 18 0.672 17.328 0 16.5 0 L 1.5 0 Z M 5.521 4.003 C 5.526 4.959 4.811 5.548 3.961 5.544 C 3.161 5.54 2.464 4.903 2.468 4.004 C 2.472 3.159 3.14 2.48 4.008 2.499 C 4.888 2.519 5.526 3.165 5.521 4.003 Z M 9.28 6.762 L 6.76 6.762 L 6.758 6.762 L 6.758 15.322 L 9.422 15.322 L 9.422 15.122 C 9.422 14.742 9.421 14.362 9.421 13.982 C 9.42 12.968 9.419 11.953 9.425 10.94 C 9.426 10.694 9.437 10.438 9.5 10.203 C 9.738 9.325 10.527 8.759 11.407 8.898 C 11.973 8.986 12.347 9.314 12.504 9.847 C 12.601 10.18 12.645 10.539 12.649 10.886 C 12.661 11.934 12.659 12.981 12.657 14.029 C 12.657 14.399 12.656 14.769 12.656 15.139 L 12.656 15.32 L 15.328 15.32 L 15.328 15.115 C 15.328 14.663 15.328 14.211 15.327 13.759 C 15.327 12.63 15.326 11.5 15.329 10.37 C 15.331 9.86 15.276 9.356 15.151 8.863 C 14.964 8.129 14.577 7.521 13.948 7.082 C 13.503 6.77 13.013 6.569 12.466 6.547 C 12.404 6.544 12.341 6.541 12.278 6.537 C 11.998 6.522 11.714 6.507 11.447 6.561 C 10.682 6.714 10.01 7.064 9.502 7.681 C 9.443 7.752 9.385 7.824 9.299 7.931 L 9.28 7.956 L 9.28 6.762 Z M 2.682 15.324 L 5.332 15.324 L 5.332 6.767 L 2.682 6.767 L 2.682 15.324 Z" fill="currentColor" fill-rule="evenodd" transform="matrix(1 0 0 1 3 3.243)"></path></svg>