<svg layerName="logo" viewBox="0 0 161 28" width="161" height="28" xmlns="http://www.w3.org/2000/svg" style="width: 161px; height: 28px; overflow-x: visible; overflow-y: visible; flex-shrink: 0">
  <g layerName="maciej-lewinski-black-transparent-logotype.svg fill">
    <g layerName="maciej-lewinski-black-transparent-logotype.svg">
      <path layerName="Vector" d="M23.380 23.508C22.622 23.520 21.863 23.368 21.175 23.053C20.510 22.759 19.950 22.270 19.567 21.652C19.184 21.034 18.996 20.315 19.028 19.588C19.005 18.958 19.157 18.340 19.472 17.803C19.763 17.337 20.160 16.975 20.638 16.718C21.140 16.450 21.677 16.252 22.237 16.135C22.820 16.018 23.403 15.902 23.998 15.820C23.998 15.820 25.900 15.587 25.900 15.587C26.262 15.575 26.623 15.482 26.962 15.330C27.075 15.262 27.167 15.164 27.227 15.046C27.287 14.929 27.312 14.796 27.300 14.665C27.300 14.665 27.300 14.572 27.300 14.572C27.320 14.224 27.271 13.875 27.155 13.547C27.039 13.218 26.858 12.916 26.623 12.658C26.350 12.416 26.030 12.230 25.683 12.114C25.336 11.998 24.970 11.953 24.605 11.982C23.818 11.934 23.037 12.152 22.388 12.600C21.922 12.938 21.537 13.382 21.268 13.907C21.268 13.907 19.402 13.242 19.402 13.242C19.688 12.576 20.122 11.985 20.672 11.514C21.223 11.042 21.873 10.704 22.575 10.523C23.680 10.231 24.836 10.191 25.958 10.407C26.507 10.512 27.032 10.710 27.510 11.002C28.047 11.328 28.478 11.807 28.770 12.355C29.132 13.113 29.307 13.953 29.272 14.793C29.272 14.793 29.272 23.217 29.272 23.217C29.272 23.217 27.300 23.217 27.300 23.217C27.300 23.217 27.300 21.467 27.300 21.467C27.300 21.467 27.207 21.467 27.207 21.467C26.807 22.262 26.118 22.876 25.282 23.182C24.675 23.415 24.033 23.532 23.392 23.520C23.392 23.520 23.392 23.508 23.392 23.508C23.392 23.508 23.380 23.508 23.380 23.508ZM23.683 21.758C24.383 21.770 25.048 21.618 25.667 21.292C26.152 21.027 26.558 20.637 26.843 20.164C27.128 19.690 27.281 19.149 27.288 18.597C27.288 18.597 27.288 16.777 27.288 16.777C27.137 16.917 26.938 17.010 26.740 17.057C26.068 17.200 25.391 17.317 24.710 17.407C24.710 17.407 23.893 17.523 23.893 17.523C23.403 17.570 22.925 17.687 22.458 17.838C22.050 17.955 21.688 18.188 21.397 18.492C21.117 18.818 20.965 19.250 20.988 19.682C20.973 19.983 21.036 20.283 21.171 20.553C21.306 20.823 21.508 21.053 21.758 21.222C22.330 21.583 23.007 21.770 23.683 21.735ZM37.333 23.473C36.263 23.516 35.205 23.236 34.296 22.671C33.387 22.105 32.669 21.279 32.235 20.300C31.753 19.230 31.513 18.067 31.535 16.893C31.516 15.706 31.763 14.530 32.258 13.452C32.694 12.486 33.404 11.669 34.300 11.103C35.196 10.537 36.239 10.246 37.298 10.267C38.127 10.267 38.967 10.430 39.725 10.768C40.426 11.079 41.036 11.563 41.498 12.176C41.959 12.789 42.257 13.509 42.362 14.268C42.362 14.268 40.390 14.268 40.390 14.268C40.214 13.602 39.814 13.017 39.257 12.611C38.701 12.205 38.021 12.004 37.333 12.040C36.616 12.019 35.911 12.223 35.315 12.623C34.717 13.048 34.249 13.629 33.962 14.303C33.635 15.106 33.480 15.969 33.507 16.835C33.483 17.710 33.635 18.585 33.962 19.402C34.208 20.092 34.665 20.687 35.268 21.103C35.871 21.520 36.589 21.737 37.322 21.723C37.788 21.723 38.267 21.642 38.722 21.455C39.132 21.282 39.497 21.014 39.784 20.673C40.072 20.333 40.276 19.929 40.378 19.495C40.378 19.495 42.350 19.495 42.350 19.495C42.246 20.238 41.960 20.944 41.516 21.549C41.072 22.153 40.485 22.638 39.807 22.960C39.025 23.322 38.173 23.508 37.322 23.485ZM45.512 8.283C45.242 8.285 44.977 8.209 44.749 8.065C44.522 7.920 44.341 7.712 44.228 7.467C44.124 7.224 44.097 6.954 44.151 6.695C44.205 6.436 44.338 6.200 44.532 6.020C44.799 5.771 45.152 5.632 45.517 5.632C45.883 5.632 46.236 5.771 46.503 6.020C46.632 6.140 46.735 6.285 46.805 6.447C46.876 6.609 46.912 6.783 46.912 6.959C46.912 7.135 46.876 7.310 46.805 7.471C46.735 7.633 46.632 7.778 46.503 7.898C46.238 8.156 45.882 8.299 45.512 8.295C45.512 8.295 45.512 8.283 45.512 8.283ZM44.508 10.418C44.508 10.418 46.480 10.418 46.480 10.418C46.480 10.418 46.480 23.217 46.480 23.217C46.480 23.217 44.508 23.217 44.508 23.217C44.508 23.217 44.508 10.418 44.508 10.418ZM54.717 23.473C53.603 23.503 52.504 23.221 51.543 22.657C50.649 22.108 49.935 21.309 49.490 20.358C48.988 19.282 48.741 18.104 48.767 16.917C48.744 15.722 48.991 14.538 49.490 13.452C49.929 12.488 50.639 11.673 51.534 11.107C52.430 10.541 53.471 10.249 54.530 10.267C55.207 10.267 55.872 10.372 56.513 10.593C57.216 10.836 57.854 11.235 58.380 11.760C58.905 12.286 59.304 12.924 59.547 13.627C59.897 14.607 60.037 15.622 60.013 16.660C60.013 16.660 60.013 17.477 60.013 17.477C60.013 17.477 50.190 17.477 50.190 17.477C50.190 17.477 50.190 15.785 50.190 15.785C50.190 15.785 58.042 15.785 58.042 15.785C58.057 15.115 57.913 14.452 57.622 13.848C57.340 13.281 56.901 12.806 56.357 12.482C55.813 12.157 55.187 11.995 54.553 12.017C53.833 12.000 53.125 12.203 52.523 12.600C51.963 12.978 51.513 13.497 51.217 14.105C50.913 14.723 50.750 15.388 50.750 16.088C50.750 16.088 50.750 17.220 50.750 17.220C50.738 18.060 50.902 18.900 51.263 19.670C51.567 20.300 52.057 20.837 52.663 21.187C53.192 21.482 53.778 21.661 54.382 21.711C54.985 21.762 55.593 21.682 56.163 21.478C56.574 21.338 56.948 21.107 57.258 20.802C57.567 20.497 57.803 20.126 57.948 19.717C57.948 19.717 59.850 20.242 59.850 20.242C59.652 20.879 59.304 21.459 58.835 21.933C58.345 22.435 57.750 22.820 57.085 23.065C56.340 23.347 55.548 23.486 54.752 23.473ZM62.323 10.418C62.323 10.418 64.283 10.418 64.283 10.418C64.283 10.418 64.283 24.150 64.283 24.150C64.295 24.850 64.167 25.550 63.875 26.192C63.630 26.775 63.198 27.242 62.662 27.557C62.032 27.883 61.332 28.035 60.620 28.012C60.620 28.012 60.223 28.012 60.223 28.012C60.223 28.012 60.223 26.192 60.223 26.192C60.223 26.192 60.585 26.192 60.585 26.192C60.831 26.214 61.078 26.179 61.307 26.087C61.536 25.996 61.741 25.852 61.903 25.667C62.207 25.223 62.347 24.698 62.323 24.162C62.323 24.162 62.323 10.418 62.323 10.418ZM63.280 8.295C63.010 8.297 62.745 8.221 62.518 8.076C62.290 7.931 62.109 7.724 61.997 7.478C61.889 7.234 61.861 6.962 61.915 6.701C61.969 6.439 62.104 6.201 62.300 6.020C62.568 5.771 62.920 5.632 63.286 5.632C63.652 5.632 64.004 5.771 64.272 6.020C64.401 6.140 64.503 6.285 64.574 6.447C64.644 6.609 64.680 6.783 64.680 6.959C64.680 7.135 64.644 7.310 64.574 7.471C64.503 7.633 64.401 7.778 64.272 7.898C64.007 8.156 63.650 8.299 63.280 8.295ZM73.325 23.217C73.325 23.217 73.325 6.148 73.325 6.148C73.325 6.148 75.390 6.148 75.390 6.148C75.390 6.148 75.390 21.362 75.390 21.362C75.390 21.362 83.312 21.362 83.312 21.362C83.312 21.362 83.312 23.193 83.312 23.193C83.312 23.193 73.325 23.193 73.325 23.193C73.325 23.193 73.325 23.217 73.325 23.217ZM90.895 23.473C89.787 23.497 88.678 23.217 87.733 22.657C86.835 22.110 86.116 21.310 85.668 20.358C85.171 19.281 84.927 18.103 84.957 16.917C84.930 15.723 85.173 14.538 85.668 13.452C86.107 12.488 86.817 11.673 87.713 11.107C88.608 10.541 89.649 10.249 90.708 10.267C91.385 10.267 92.050 10.372 92.692 10.593C93.395 10.834 94.034 11.233 94.560 11.759C95.086 12.284 95.484 12.923 95.725 13.627C96.063 14.607 96.215 15.622 96.180 16.660C96.180 16.660 96.180 17.477 96.180 17.477C96.180 17.477 86.322 17.477 86.322 17.477C86.322 17.477 86.322 15.785 86.322 15.785C86.322 15.785 94.185 15.785 94.185 15.785C94.185 15.108 94.033 14.455 93.718 13.848C93.441 13.280 93.004 12.804 92.462 12.479C91.919 12.154 91.294 11.993 90.662 12.017C89.945 12.001 89.241 12.205 88.643 12.600C88.072 12.973 87.628 13.498 87.325 14.105C87.022 14.723 86.858 15.388 86.870 16.088C86.870 16.088 86.870 17.220 86.870 17.220C86.846 18.066 87.021 18.905 87.383 19.670C87.687 20.300 88.177 20.837 88.783 21.187C89.413 21.537 90.137 21.723 90.872 21.712C91.338 21.712 91.817 21.642 92.272 21.478C92.684 21.337 93.059 21.106 93.370 20.801C93.681 20.496 93.919 20.126 94.068 19.717C94.068 19.717 95.958 20.242 95.958 20.242C95.764 20.878 95.420 21.458 94.955 21.933C94.465 22.435 93.870 22.820 93.205 23.065C92.458 23.345 91.665 23.485 90.872 23.473ZM101.383 23.217C101.383 23.217 97.487 10.418 97.487 10.418C97.487 10.418 99.552 10.418 99.552 10.418C99.552 10.418 102.317 20.207 102.317 20.207C102.317 20.207 102.433 20.207 102.433 20.207C102.433 20.207 105.175 10.407 105.175 10.407C105.175 10.407 107.275 10.407 107.275 10.407C107.275 10.407 109.958 20.172 109.958 20.172C109.958 20.172 110.098 20.172 110.098 20.172C110.098 20.172 112.863 10.418 112.863 10.418C112.863 10.418 114.928 10.418 114.928 10.418C114.928 10.418 111.032 23.193 111.032 23.193C111.032 23.193 109.107 23.193 109.107 23.193C109.107 23.193 106.307 13.382 106.307 13.382C106.307 13.382 106.108 13.382 106.108 13.382C106.108 13.382 103.308 23.193 103.308 23.193C103.308 23.193 101.383 23.193 101.383 23.193C101.383 23.193 101.383 23.217 101.383 23.217ZM118.790 10.430C118.790 10.430 116.830 10.430 116.830 10.430C116.830 10.430 116.830 23.205 116.830 23.205C116.830 23.205 118.790 23.205 118.790 23.205C118.790 23.205 118.790 10.430 118.790 10.430ZM123.643 15.517C123.643 15.517 123.643 23.217 123.643 23.217C123.643 23.217 121.683 23.217 121.683 23.217C121.683 23.217 121.683 10.418 121.683 10.418C121.683 10.418 123.562 10.418 123.562 10.418C123.562 10.418 123.562 12.413 123.562 12.413C123.562 12.413 123.737 12.413 123.737 12.413C124.028 11.772 124.495 11.235 125.090 10.850C125.806 10.429 126.629 10.226 127.458 10.267C128.240 10.243 129.022 10.418 129.722 10.780C130.375 11.153 130.900 11.713 131.238 12.378C131.623 13.230 131.810 14.163 131.775 15.097C131.775 15.097 131.775 23.228 131.775 23.228C131.775 23.228 129.803 23.228 129.803 23.228C129.803 23.228 129.803 15.213 129.803 15.213C129.862 14.362 129.570 13.522 129.022 12.868C128.745 12.581 128.411 12.357 128.041 12.210C127.670 12.063 127.273 11.997 126.875 12.017C126.292 12.017 125.708 12.145 125.207 12.425C124.705 12.705 124.308 13.125 124.040 13.615C123.748 14.198 123.597 14.863 123.620 15.517ZM143.745 13.288C143.745 13.288 141.995 13.790 141.995 13.790C141.872 13.479 141.703 13.188 141.493 12.927C141.263 12.630 140.968 12.391 140.630 12.227C140.187 12.028 139.697 11.935 139.218 11.958C138.518 11.923 137.853 12.110 137.270 12.495C137.034 12.634 136.838 12.832 136.701 13.069C136.564 13.306 136.491 13.574 136.488 13.848C136.478 14.072 136.522 14.294 136.615 14.497C136.708 14.700 136.849 14.877 137.025 15.015C137.527 15.365 138.087 15.598 138.682 15.715C138.682 15.715 140.583 16.170 140.583 16.170C141.540 16.345 142.415 16.788 143.150 17.442C143.426 17.734 143.640 18.079 143.780 18.456C143.921 18.832 143.984 19.233 143.967 19.635C143.990 20.335 143.768 21.035 143.348 21.595C142.893 22.190 142.298 22.668 141.598 22.960C140.782 23.310 139.883 23.473 138.985 23.450C137.848 23.496 136.724 23.203 135.753 22.610C135.327 22.328 134.963 21.962 134.682 21.535C134.401 21.108 134.210 20.628 134.120 20.125C134.120 20.125 135.987 19.670 135.987 19.670C136.127 20.288 136.488 20.837 137.002 21.210C137.585 21.583 138.262 21.770 138.950 21.735C139.724 21.773 140.490 21.569 141.143 21.152C141.384 21.001 141.583 20.794 141.724 20.547C141.864 20.301 141.941 20.024 141.948 19.740C141.953 19.532 141.916 19.325 141.837 19.133C141.759 18.940 141.642 18.766 141.493 18.620C141.085 18.270 140.595 18.037 140.070 17.932C140.070 17.932 137.935 17.442 137.935 17.442C136.972 17.269 136.080 16.819 135.368 16.147C134.875 15.584 134.585 14.873 134.545 14.126C134.505 13.379 134.717 12.640 135.147 12.028C135.578 11.445 136.162 11.002 136.827 10.722C137.585 10.407 138.402 10.255 139.230 10.267C140.280 10.208 141.330 10.500 142.217 11.095C142.940 11.654 143.476 12.419 143.757 13.288ZM146.242 6.160C146.242 6.160 148.202 6.160 148.202 6.160C148.202 6.160 148.202 23.217 148.202 23.217C148.202 23.217 146.242 23.217 146.242 23.217C146.242 23.217 146.242 6.183 146.242 6.183C146.242 6.183 146.242 6.160 146.242 6.160ZM148.050 18.550C148.050 18.550 148.015 16.112 148.015 16.112C148.015 16.112 148.412 16.112 148.412 16.112C148.412 16.112 154.012 10.418 154.012 10.418C154.012 10.418 156.438 10.418 156.438 10.418C156.438 10.418 150.477 16.450 150.477 16.450C150.477 16.450 150.313 16.450 150.313 16.450C150.313 16.450 148.050 18.550 148.050 18.550ZM154.350 23.217C154.350 23.217 149.357 16.870 149.357 16.870C149.357 16.870 150.757 15.505 150.757 15.505C150.757 15.505 156.847 23.205 156.847 23.205C156.847 23.205 154.338 23.205 154.338 23.205C154.338 23.205 154.350 23.217 154.350 23.217ZM159.285 8.283C159.015 8.287 158.749 8.211 158.522 8.066C158.294 7.921 158.113 7.713 158.002 7.467C157.896 7.225 157.867 6.956 157.919 6.697C157.971 6.438 158.102 6.202 158.293 6.020C158.562 5.767 158.916 5.627 159.285 5.627C159.654 5.627 160.008 5.767 160.277 6.020C160.406 6.140 160.508 6.285 160.579 6.447C160.649 6.609 160.685 6.783 160.685 6.959C160.685 7.135 160.649 7.310 160.579 7.471C160.508 7.633 160.406 7.778 160.277 7.898C160.146 8.027 159.991 8.129 159.821 8.197C159.651 8.265 159.468 8.298 159.285 8.295C159.285 8.295 159.285 8.283 159.285 8.283ZM158.282 10.418C158.282 10.418 160.253 10.418 160.253 10.418C160.253 10.418 160.253 23.217 160.253 23.217C160.253 23.217 158.282 23.217 158.282 23.217C158.282 23.217 158.282 10.418 158.282 10.418ZM126.770 7.630C126.770 7.630 116.830 7.630 116.830 7.630C116.830 7.630 116.830 5.810 116.830 5.810C116.830 5.810 126.023 5.810 126.023 5.810C126.023 5.810 131.833 0.000 131.833 0.000C131.833 0.000 133.117 1.283 133.117 1.283C133.117 1.283 126.770 7.630 126.770 7.630ZM0.000 6.347C0.000 6.347 2.462 6.347 2.462 6.347C2.462 6.347 8.260 20.487 8.260 20.487C8.260 20.487 8.458 20.487 8.458 20.487C8.458 20.487 14.233 6.347 14.233 6.347C14.233 6.347 16.707 6.347 16.707 6.347C16.707 6.347 16.707 23.380 16.707 23.380C16.707 23.380 14.770 23.380 14.770 23.380C14.770 23.380 14.770 10.430 14.770 10.430C14.770 10.430 14.607 10.430 14.607 10.430C14.607 10.430 9.275 23.380 9.275 23.380C9.275 23.380 7.408 23.380 7.408 23.380C7.408 23.380 2.100 10.430 2.100 10.430C2.100 10.430 1.925 10.430 1.925 10.430C1.925 10.430 1.925 23.380 1.925 23.380C1.925 23.380 0.000 23.380 0.000 23.380C0.000 23.380 0.000 6.347 0.000 6.347Z" fill-rule="nonzero" fill="#000000"></path>
    </g>
  </g>
</svg>