<svg layerName="Frame 618" viewBox="0 0 166.67 33.33" width="166.67" height="33.33" xmlns="http://www.w3.org/2000/svg" style="width: 166.67px; height: 33.33px; overflow-x: visible; overflow-y: visible; flex-shrink: 0">
  <g transform="matrix(1 0 0 1 41.667 0)" layerName="Logo XTB 1">
    <path transform="matrix(1 0 0 1 1.112 1.111)" layerName="Vector" d="M0.000 0.000C0.000 0.000 31.065 0.000 31.065 0.000C31.065 0.000 31.065 31.065 31.065 31.065C31.065 31.065 0.000 31.065 0.000 31.065C0.000 31.065 0.000 0.000 0.000 0.000Z" fill-rule="nonzero" fill="#FFFFFF" />
    <path transform="matrix(1 0 0 1 0 0)" layerName="Vector" d="M0.231 33.287C0.231 33.287 33.287 33.287 33.287 33.287C33.287 33.287 33.287 0.000 33.287 0.000C33.287 0.000 0.000 0.000 0.000 0.000C0.000 0.000 0.000 33.287 0.000 33.287C0.000 33.287 0.231 33.287 0.231 33.287ZM22.639 23.611C22.500 23.472 22.361 23.380 22.176 23.241C20.648 21.852 18.981 20.556 17.269 19.444C15.648 20.417 14.028 21.296 12.315 22.083C12.315 22.083 1.991 20.000 1.991 20.000C4.028 19.491 5.972 18.843 7.917 18.056C9.213 17.546 10.463 16.944 11.713 16.296C10.926 15.926 10.185 15.602 9.352 15.278C7.407 14.491 5.417 13.889 3.426 13.333C3.426 13.333 13.750 11.250 13.750 11.250C14.907 11.806 16.019 12.361 17.176 13.009C18.426 12.083 19.630 11.111 20.787 10.093C20.926 9.954 21.065 9.861 21.250 9.722C21.250 9.722 29.954 8.056 29.954 8.056C27.731 11.065 25.093 13.796 22.130 16.111C25.648 18.657 28.796 21.759 31.389 25.231C31.389 25.231 22.685 23.611 22.685 23.611C22.685 23.611 22.639 23.611 22.639 23.611Z" fill-rule="evenodd" fill="#000000" />
    <g transform="matrix(1 0 0 1 39.954 3.472)" layerName="Group">
      <path transform="matrix(1 0 0 1 0 6.111)" layerName="Vector" d="M5.694 7.500C5.694 7.500 0.000 0.000 0.000 0.000C0.000 0.000 4.213 0.000 4.213 0.000C4.213 0.000 7.963 4.907 7.963 4.907C7.963 4.907 11.574 0.000 11.574 0.000C11.574 0.000 15.694 0.000 15.694 0.000C15.694 0.000 9.954 7.546 9.954 7.546C9.954 7.546 15.833 15.231 15.833 15.231C15.833 15.231 11.620 15.231 11.620 15.231C11.620 15.231 7.778 10.185 7.778 10.185C7.778 10.185 4.167 15.231 4.167 15.231C4.167 15.231 0.046 15.231 0.046 15.231C0.046 15.231 5.741 7.546 5.741 7.546C5.741 7.546 5.694 7.500 5.694 7.500Z" fill-rule="nonzero" fill="#000000" />
      <path transform="matrix(1 0 0 1 16.436 2.222)" layerName="Vector" d="M7.083 19.120C4.167 19.120 2.176 17.407 2.176 14.028C2.176 14.028 2.176 7.269 2.176 7.269C2.176 7.269 0.000 7.269 0.000 7.269C0.000 7.269 0.000 3.889 0.000 3.889C0.000 3.889 2.176 3.889 2.176 3.889C2.176 3.889 2.176 1.111 2.176 1.111C2.176 1.111 5.787 0.000 5.787 0.000C5.787 0.000 5.787 3.889 5.787 3.889C5.787 3.889 9.074 3.889 9.074 3.889C9.074 3.889 9.074 7.269 9.074 7.269C9.074 7.269 5.787 7.269 5.787 7.269C5.787 7.269 5.787 13.889 5.787 13.889C5.787 15.046 6.389 15.694 7.269 15.694C7.269 15.694 9.074 15.694 9.074 15.694C9.074 15.694 9.074 19.074 9.074 19.074C9.074 19.074 7.083 19.074 7.083 19.074C7.083 19.074 7.083 19.120 7.083 19.120Z" fill-rule="nonzero" fill="#000000" />
      <path transform="matrix(1 0 0 1 27.314 0)" layerName="Vector" d="M8.241 21.620C6.111 21.620 4.537 20.694 3.426 19.259C3.426 19.259 3.426 21.296 3.426 21.296C3.426 21.296 0.000 21.296 0.000 21.296C0.000 21.296 0.000 0.000 0.000 0.000C0.000 0.000 3.611 0.000 3.611 0.000C3.611 0.000 3.611 8.009 3.611 8.009C4.722 6.713 6.343 5.833 8.380 5.833C12.593 5.833 15.926 9.398 15.926 13.843C15.926 18.287 12.639 21.620 8.287 21.620C8.287 21.620 8.241 21.620 8.241 21.620ZM12.176 13.750C12.176 11.204 10.370 9.398 7.824 9.398C5.278 9.398 3.472 11.204 3.472 13.750C3.472 16.296 5.278 18.102 7.824 18.102C10.370 18.102 12.176 16.296 12.176 13.750Z" fill-rule="nonzero" fill="#000000" />
    </g>
  </g>
</svg>